<svg xmlns="http://www.w3.org/2000/svg" width="1100" height="520" viewBox="0 0 1100 520" fill="none">
  <rect width="1100" height="520" fill="#030712"/>
  <text x="550" y="40" text-anchor="middle" fill="#f9fafb" font-family="Segoe UI, Arial, sans-serif" font-size="22" font-weight="700">Agent Pipeline Architecture</text>
  <defs>
    <marker id="arrow" markerWidth="10" markerHeight="10" refX="9" refY="3" orient="auto">
      <path d="M0,0 L9,3 L0,6 Z" fill="#6366f1"/>
    </marker>
  </defs>
  <g font-family="Segoe UI, Arial, sans-serif">
    <rect x="40" y="80" width="160" height="70" rx="12" fill="#111827" stroke="#374151"/>
    <text x="120" y="115" text-anchor="middle" fill="#e5e7eb" font-size="14" font-weight="600">Market Data</text>
    <text x="120" y="135" text-anchor="middle" fill="#6b7280" font-size="11">yfinance · RSS · Reddit</text>

    <rect x="260" y="60" width="140" height="50" rx="10" fill="#1e1b4b" stroke="#6366f1"/>
    <text x="330" y="90" text-anchor="middle" fill="#c7d2fe" font-size="12">Fundamental</text>
    <rect x="260" y="120" width="140" height="50" rx="10" fill="#1e1b4b" stroke="#6366f1"/>
    <text x="330" y="150" text-anchor="middle" fill="#c7d2fe" font-size="12">Technical</text>
    <rect x="260" y="180" width="140" height="50" rx="10" fill="#1e1b4b" stroke="#6366f1"/>
    <text x="330" y="210" text-anchor="middle" fill="#c7d2fe" font-size="12">Sentiment</text>

    <rect x="460" y="90" width="140" height="50" rx="10" fill="#172554" stroke="#3b82f6"/>
    <text x="530" y="120" text-anchor="middle" fill="#bfdbfe" font-size="12">Bull Research</text>
    <rect x="460" y="150" width="140" height="50" rx="10" fill="#172554" stroke="#3b82f6"/>
    <text x="530" y="180" text-anchor="middle" fill="#bfdbfe" font-size="12">Bear Research</text>

    <rect x="660" y="120" width="140" height="60" rx="10" fill="#451a03" stroke="#f59e0b"/>
    <text x="730" y="148" text-anchor="middle" fill="#fde68a" font-size="12">Risk Manager</text>
    <text x="730" y="166" text-anchor="middle" fill="#92400e" font-size="10">Low / Med / High</text>

    <rect x="860" y="110" width="160" height="80" rx="12" fill="#064e3b" stroke="#10b981"/>
    <text x="940" y="145" text-anchor="middle" fill="#a7f3d0" font-size="13" font-weight="600">Portfolio Mgr</text>
    <text x="940" y="165" text-anchor="middle" fill="#6ee7b7" font-size="11">BUY · SELL · HOLD</text>

    <path d="M200 115 L255 90" stroke="#6366f1" stroke-width="2" marker-end="url(#arrow)"/>
    <path d="M200 115 L255 145" stroke="#6366f1" stroke-width="2" marker-end="url(#arrow)"/>
    <path d="M200 115 L255 205" stroke="#6366f1" stroke-width="2" marker-end="url(#arrow)"/>
    <path d="M400 85 L455 115" stroke="#6366f1" stroke-width="2" marker-end="url(#arrow)"/>
    <path d="M400 145 L455 145" stroke="#6366f1" stroke-width="2" marker-end="url(#arrow)"/>
    <path d="M400 205 L455 175" stroke="#6366f1" stroke-width="2" marker-end="url(#arrow)"/>
    <path d="M600 115 L655 140" stroke="#6366f1" stroke-width="2" marker-end="url(#arrow)"/>
    <path d="M600 175 L655 160" stroke="#6366f1" stroke-width="2" marker-end="url(#arrow)"/>
    <path d="M800 150 L855 150" stroke="#6366f1" stroke-width="2" marker-end="url(#arrow)"/>

    <rect x="860" y="280" width="160" height="60" rx="10" fill="#111827" stroke="#374151"/>
    <text x="940" y="315" text-anchor="middle" fill="#e5e7eb" font-size="12">Decision Log</text>
    <path d="M940 190 L940 275" stroke="#10b981" stroke-width="2" marker-end="url(#arrow)"/>

    <rect x="40" y="280" width="200" height="60" rx="10" fill="#111827" stroke="#6366f1" stroke-dasharray="4 4"/>
    <text x="140" y="315" text-anchor="middle" fill="#a5b4fc" font-size="12">Past Decision Memory</text>
    <path d="M140 280 L140 250 L240 250 L240 115" stroke="#6366f1" stroke-width="1.5" stroke-dasharray="5 5" fill="none"/>

    <rect x="40" y="380" width="1020" height="100" rx="14" fill="rgba(99,102,241,0.08)" stroke="rgba(99,102,241,0.3)"/>
    <text x="550" y="415" text-anchor="middle" fill="#c7d2fe" font-size="14" font-weight="600">LangGraph Orchestrator</text>
    <text x="550" y="440" text-anchor="middle" fill="#6b7280" font-size="12">Parallel analysts ’ Debate ’ Risk ’ Portfolio ’ WebSocket broadcast + simulated execution</text>
    <text x="550" y="462" text-anchor="middle" fill="#6b7280" font-size="12">Rules: 20% max position · 20% cash reserve · 5% stop-loss · HIGH confidence only</text>
  </g>
</svg>
